Coordinates
version=1
nRows=17
nColumns=24
inDegrees=yes

Units are S.I. units (second, meters, Newtons, ...)
Angles are in degrees.

endheader
time	pelvis_tilt	pelvis_list	pelvis_rotation	pelvis_tx	pelvis_ty	pelvis_tz	hip_flexion_r	hip_adduction_r	hip_rotation_r	knee_angle_r	ankle_angle_r	subtalar_angle_r	mtp_angle_r	hip_flexion_l	hip_adduction_l	hip_rotation_l	knee_angle_l	ankle_angle_l	subtalar_angle_l	mtp_angle_l	lumbar_extension	lumbar_bending	lumbar_rotation
      0.72383333	     -1.23904855	     -3.14270890	      1.99799050	     -0.45973610	      0.98612324	      0.30119230	     15.60440393	      7.99887345	     -0.91847080	    -21.36968935	      7.12567686	     -9.36918992	      1.05371137	     20.70641534	     -3.31666863	     -0.85245746	    -71.33466621	     -5.40401553	     -5.39209453	      2.00446339	     -0.97180858	      6.13791912	      1.88981781
      0.72800000	     -1.15465713	     -3.09441353	      2.03453542	     -0.45454481	      0.98720232	      0.30106744	     14.95184384	      7.93999354	     -0.95708198	    -20.94320006	      7.21330125	     -9.16299830	      1.01334548	     21.25844942	     -3.19993904	     -0.73512572	    -71.19315274	     -4.88459554	     -6.04285465	      1.81406962	     -1.08470099	      6.10934764	      1.95197470
      0.73216667	     -1.07734023	     -3.04397616	      2.05730815	     -0.44936999	      0.98823052	      0.30098002	     14.31755764	      7.88184479	     -1.00083675	    -20.53799937	      7.31002239	     -8.97475603	      0.96625234	     21.80057144	     -3.09200082	     -0.64295180	    -70.99107553	     -4.30664749	     -6.62636005	      1.58649825	     -1.18602194	      6.05889108	      2.01666399
      0.73633333	     -1.06072175	     -2.98790558	      2.05730644	     -0.44423178	      0.98915180	      0.30090445	     13.76167911	      7.82163738	     -1.00230576	    -20.15858928	      7.41574000	     -8.88346415	      0.95371924	     22.38759536	     -2.97692008	     -0.56381344	    -70.72128306	     -3.66689495	     -7.11480867	      1.52104885	     -1.22085028	      6.01889813	      2.05952191
      0.74050000	     -0.97573261	     -2.89528517	      2.07595758	     -0.43906808	      0.99017014	      0.30076846	     13.13181405	      7.70568514	     -1.09191088	    -19.78425200	      7.53943229	     -8.57065024	      0.28571768	     22.86715932	     -2.80691450	     -0.47944064	    -70.35669367	     -3.08883851	     -7.64336100	     -1.88932621	     -1.34945111	      5.91858633	      2.11321657
      0.74466667	     -0.94588533	     -2.85170743	      2.05165675	     -0.43391648	      0.99107158	      0.30073569	     12.54632552	      7.66793779	     -1.05850882	    -19.36835766	      7.61027572	     -8.46683050	      0.28497082	     23.39016745	     -2.72352565	     -0.43771425	    -69.94161616	     -2.47506369	     -8.09958623	     -1.89218330	     -1.41047749	      5.89124281	      2.18653985
      0.74883333	     -0.84500206	     -2.75991518	      2.03945761	     -0.42872564	      0.99210730	      0.30065233	     11.86773822	      7.56982682	     -1.06029629	    -18.92696409	      7.66936028	     -8.28171651	      0.28149780	     23.79020903	     -2.57772405	     -0.39812107	    -69.41062057	     -1.96821133	     -8.57144076	     -1.91431138	     -1.55017662	      5.79729078	      2.31083024
      0.75300000	     -0.84710433	     -2.67893313	      2.00199439	     -0.42359950	      0.99290958	      0.30060758	     11.33425331	      7.48379305	     -1.04283350	    -18.54890386	      7.75689482	     -8.15093012	      0.28104206	     24.29571648	     -2.44935701	     -0.37331850	    -68.84704159	     -1.38623071	     -8.96374628	     -1.92648291	     -1.58058758	      5.71933549	      2.37868329
      0.75716667	     -0.80626702	     -2.60293153	      1.96159248	     -0.41846190	      0.99375051	      0.30055862	     10.74232520	      7.40390877	     -1.02522094	    -18.14188211	      7.83007737	     -7.98403623	      0.28001429	     24.72616337	     -2.33271084	     -0.35782663	    -68.20848819	     -0.84754776	     -9.33828331	     -1.94609814	     -1.66320293	      5.64461605	      2.47295871
      0.76133333	     -0.71441624	     -2.50004678	      1.92261768	     -0.41326653	      0.99466284	      0.30048680	     10.08286853	      7.28835445	     -1.04540683	    -17.71741993	      7.90075303	     -7.71572399	      0.27671850	     25.05784945	     -2.18963880	     -0.35579945	    -67.47150488	     -0.38705668	     -9.66263317	     -2.00319323	     -1.78398412	      5.54681842	      2.63567683
      0.76550000	     -0.68396864	     -2.40001757	      1.85913289	     -0.40812292	      0.99542685	      0.30044096	      9.50975439	      7.17843970	     -1.03403731	    -17.32724491	      7.97749276	     -7.50558954	      0.27433083	     25.44035282	     -2.05600550	     -0.37363299	    -66.68806907	      0.11124800	     -9.95192243	     -2.06252260	     -1.84689184	      5.44491551	      2.75923962
      0.76966667	     -0.65553152	     -2.31193992	      1.78011035	     -0.40300053	      0.99612325	      0.30041043	      8.94800266	      7.08374039	     -1.00636359	    -16.95222596	      8.04839521	     -7.33896189	      0.27348962	     25.80444657	     -1.94339036	     -0.40520773	    -65.85245926	      0.62919378	    -10.20105368	     -2.10755526	     -1.90593995	      5.37089603	      2.85763511
      0.77383333	     -0.64950668	     -2.22021494	      1.70576515	     -0.39786917	      0.99675895	      0.30038332	      8.40293326	      6.98346588	     -0.97486365	    -16.55883271	      8.11642559	     -7.15240308	      0.27344906	     26.16911902	     -1.82812463	     -0.43583366	    -64.94973014	      1.08589216	    -10.40145009	     -2.16322050	     -1.94588332	      5.27833936	      2.98636142
      0.77800000	     -0.62428698	     -2.13272545	      1.62266115	     -0.39275065	      0.99736702	      0.30035736	      7.84201922	      6.88891358	     -0.93437315	    -16.17373685	      8.18697807	     -6.97731767	      0.27447648	     26.48883399	     -1.72198683	     -0.47538630	    -63.99029377	      1.53505456	    -10.56776226	     -2.21395212	     -2.01086706	      5.19940128	      3.10376827
      0.78216667	     -0.59547321	     -2.05050091	      1.54996864	     -0.38761050	      0.99793606	      0.30033140	      7.26660603	      6.79650187	     -0.92192912	    -15.76246579	      8.25834428	     -6.76652307	      0.27687067	     26.78335404	     -1.62547355	     -0.51570688	    -62.97174156	      1.91888837	    -10.68857630	     -2.29468399	     -2.06994680	      5.10344329	      3.27007797
      0.78633333	     -0.60377044	     -1.96726292	      1.46252214	     -0.38249167	      0.99839509	      0.30030074	      6.74744341	      6.70059342	     -0.89390965	    -15.38273283	      8.32896911	     -6.55359404	      0.28200961	     27.09385809	     -1.52490063	     -0.55741600	    -61.89803447	      2.29614458	    -10.78834063	     -2.40066265	     -2.09512609	      5.03074642	      3.43304552
      0.79050000	     -0.61248305	     -1.90098039	      1.37169009	     -0.37738728	      0.99879325	      0.30027620	      6.22951189	      6.62505293	     -0.85452048	    -14.99914033	      8.39241048	     -6.37275250	      0.28863227	     27.38687275	     -1.44676500	     -0.60204153	    -60.77845412	      2.65819674	    -10.85776698	     -2.51356236	     -2.12022275	      4.97546203	      3.57389548
